HIERARCHY
ROOT Bip001_Pelvis
{
  OFFSET 7.937 94.8971 -8.5489
  CHANNELS 6 Xposition Yposition Zposition Zrotation Xrotation Yrotation
  JOINT Bip001_Spine
  {
    OFFSET 1.44608e-005 10.4157 -0.0118244
    CHANNELS 3 Zrotation Xrotation Yrotation
    JOINT Bip001_L_Thigh
    {
      OFFSET 11.2582 -10.4157 0.0118432
      CHANNELS 3 Zrotation Xrotation Yrotation
      JOINT Bip001_L_Calf
      {
        OFFSET -0.720717 -44.8687 0.366937
        CHANNELS 3 Zrotation Xrotation Yrotation
        JOINT Bip001_L_Foot
        {
          OFFSET -0.664439 -41.3745 -3.62995
          CHANNELS 3 Zrotation Xrotation Yrotation
          JOINT Bip001_L_Toe0
          {
            OFFSET 0.0541047 -10.4146 13.4033
            CHANNELS 3 Zrotation Xrotation Yrotation
            End Site
            {
              OFFSET -1.04503e-005 0 7.70137
            }
          }
        }
      }
    }
    JOINT Bip001_R_Thigh
    {
      OFFSET -11.2582 -10.4156 0.0118122
      CHANNELS 3 Zrotation Xrotation Yrotation
      JOINT Bip001_R_Calf
      {
        OFFSET 0.72059 -44.8687 0.36676
        CHANNELS 3 Zrotation Xrotation Yrotation
        JOINT Bip001_R_Foot
        {
          OFFSET 0.664321 -41.3745 -3.62979
          CHANNELS 3 Zrotation Xrotation Yrotation
          JOINT Bip001_R_Toe0
          {
            OFFSET -0.05417 -10.4146 13.4033
            CHANNELS 3 Zrotation Xrotation Yrotation
            End Site
            {
              OFFSET -1.04873e-005 0 7.70137
            }
          }
        }
      }
    }
    JOINT Bip001_Spine1
    {
      OFFSET 1.90638e-005 14.8539 1.10727
      CHANNELS 3 Zrotation Xrotation Yrotation
      JOINT Bip001_Spine2
      {
        OFFSET 2.28934e-005 14.7848 -1.7233
        CHANNELS 3 Zrotation Xrotation Yrotation
        JOINT Bip001_Neck
        {
          OFFSET 2.24514e-005 15.6905 -0.498826
          CHANNELS 3 Zrotation Xrotation Yrotation
          JOINT Bip001_L_Clavicle
          {
            OFFSET 6.17691 -0.000591152 0.00852867
            CHANNELS 3 Zrotation Xrotation Yrotation
            JOINT Bip001_L_UpperArm
            {
              OFFSET 11.773 -0.0611878 0.00197697
              CHANNELS 3 Zrotation Xrotation Yrotation
              JOINT Bip001_L_Forearm
              {
                OFFSET 26.4515 0.0817568 -2.19579
                CHANNELS 3 Zrotation Xrotation Yrotation
                JOINT Bip001_L_Hand
                {
                  OFFSET 32.8677 0.156744 1.67112
                  CHANNELS 3 Zrotation Xrotation Yrotation
                  JOINT Bip001_L_Finger0
                  {
                    OFFSET 6.16268 -2.25226 6.01674
                    CHANNELS 3 Zrotation Xrotation Yrotation
                    End Site
                    {
                      OFFSET 4.30499 -1.46662 0.618148
                    }
                  }
                  JOINT Bip001_L_Finger1
                  {
                    OFFSET 11.2957 -0.718374 -0.201963
                    CHANNELS 3 Zrotation Xrotation Yrotation
                    End Site
                    {
                      OFFSET 6.31952 -0.405163 -0.0802303
                    }
                  }
                }
              }
            }
          }
          JOINT Bip001_R_Clavicle
          {
            OFFSET -6.17691 -0.000574027 0.00851165
            CHANNELS 3 Zrotation Xrotation Yrotation
            JOINT Bip001_R_UpperArm
            {
              OFFSET -11.773 -0.0611516 0.00194365
              CHANNELS 3 Zrotation Xrotation Yrotation
              JOINT Bip001_R_Forearm
              {
                OFFSET -26.4514 0.0822334 -2.19736
                CHANNELS 3 Zrotation Xrotation Yrotation
                JOINT Bip001_R_Hand
                {
                  OFFSET -32.8677 0.156817 1.67144
                  CHANNELS 3 Zrotation Xrotation Yrotation
                  JOINT Bip001_R_Finger0
                  {
                    OFFSET -6.1627 -2.25224 6.0167
                    CHANNELS 3 Zrotation Xrotation Yrotation
                    End Site
                    {
                      OFFSET -4.30499 -1.46662 0.618134
                    }
                  }
                  JOINT Bip001_R_Finger1
                  {
                    OFFSET -11.2958 -0.718344 -0.201994
                    CHANNELS 3 Zrotation Xrotation Yrotation
                    End Site
                    {
                      OFFSET -6.31952 -0.405146 -0.0802475
                    }
                  }
                }
              }
            }
          }
          JOINT Bip001_Head
          {
            OFFSET 1.11782e-005 11.4912 2.09908
            CHANNELS 3 Zrotation Xrotation Yrotation
            End Site
            {
              OFFSET 2.95144e-005 21.2823 -2.83069e-005
            }
          }
        }
      }
    }
  }
}
MOTION
Frames:	8
Frame Time:	0.04
9.74331 95.2326 -8.17226 -0.383834 -4.28426 -3.99905 -0.189278 1.33544 0.0045384 4.82192 -4.8346 8.87322 -1.82313 16.8627 1.04349 -1.70509 -8.25112 3.28212 0.72477 -9.76564 0.0204134 -8.58163 -4.70278 -1.54252 -1.39462 15.2941 6.43249 2.4483 -7.43981 -6.79027 -0.406831 -11.7531 0.424513 -0.46498 2.67785 0.0114605 -0.464978 2.67786 0.0114578 -4.93533 -0.114517 -1.98255 -25.5127 4.80305 -9.31894 -47.3925 41.0057 3.60861 11.4218 -1.24229 -23.8662 -0.943467 -0.381716 -1.84666 -1.76556e-031 -6.36111e-015 -1.59028e-015 -3.18055e-015 -3.18056e-015 -3.18055e-015 34.1238 7.74086 15.958 58.2518 28.9391 -18.7619 16.3201 -41.8066 46.6864 5.48477 -1.44954 -15.2145 -4.96962e-017 -1.19271e-015 -0 -5.96354e-016 -3.97569e-016 -7.95139e-016 1.11841 3.50931 -3.66297 
9.63175 95.2001 -8.1185 -0.415991 -4.4265 -4.07691 -0.162863 1.32287 -0.253412 4.94615 -4.68969 9.62068 -1.69402 17.0901 1.00055 -1.86564 -8.3907 2.85365 0.72477 -9.76564 0.0204134 -8.41535 -4.71377 -0.967721 -1.45604 15.6013 6.6957 2.21331 -7.62789 -7.20905 -0.298953 -11.7532 0.345161 -0.391644 2.64659 -0.505041 -0.391644 2.6466 -0.505044 -5.038 -0.348958 -1.79478 -25.3249 5.00778 -9.16798 -48.1854 40.4978 4.33548 11.893 -0.258143 -24.4045 -1.30066 -0.340464 -1.87955 -0 -3.18055e-015 -0 -8.82782e-032 -3.18056e-015 -1.59028e-015 34.3558 7.45043 14.562 56.667 22.6522 -19.3997 13.9983 -34.6813 51.3092 3.78989 -1.55322 -12.3988 -1.98785e-016 -1.59028e-015 4.77083e-015 -3.97569e-016 -1.59028e-015 4.77083e-015 1.0305 3.45309 -3.47513 
9.53194 95.2264 -8.02353 -0.393573 -4.38049 -4.22802 -0.169137 1.26331 -0.48309 5.03164 -4.41188 10.0913 -1.73468 16.8026 0.871931 -1.90134 -8.32639 2.85604 0.727099 -9.75498 0.0341782 -8.43665 -4.70545 3.1473 -0.090108 15.5729 4.62084 1.6366 -7.66883 -8.99414 -0.278798 -11.7158 0.220798 -0.39577 2.52827 -0.964371 -0.395478 2.52827 -0.96435 -4.73869 -0.449617 -1.79074 -25.3764 5.07003 -9.15125 -49.406 40.0034 5.75801 12.474 0.224255 -25.1685 -1.8077 -0.313804 -1.93468 -6.36111e-015 -3.18055e-015 -0 -6.36111e-015 0 -0 34.2633 7.121 13.2921 54.4186 16.4933 -19.309 9.41462 -27.0388 54.8133 0.519637 -1.87486 -8.9354 -3.97569e-016 -1.59028e-015 -0 -1.59028e-015 -7.95139e-016 3.18055e-015 0.593451 3.12443 -3.2695 
9.37017 95.1725 -7.92456 -0.414702 -4.24267 -4.30901 -0.150369 1.1709 -0.721216 5.18029 -4.45285 10.3108 -1.71922 17.0442 0.450191 -1.99035 -8.61038 3.19001 0.798901 -9.70239 0.192049 -8.13952 -4.96438 0.209007 -1.38755 16.0827 6.5553 1.84909 -7.92901 -7.5977 -0.171001 -11.7828 0.33996 -0.358371 2.34406 -1.44126 -0.358328 2.34405 -1.44127 -4.79044 -0.316917 -1.66592 -24.9444 4.95553 -9.30143 -50.6269 39.839 7.31141 12.6334 0.478957 -25.8864 -2.19254 -0.385767 -2.18424 -3.18055e-015 1.27222e-014 -0 -3.18055e-015 9.54167e-015 1.59028e-015 33.9802 6.64005 12.6029 51.4351 8.50329 -19.2877 2.54665 -17.3181 59.141 -3.44009 -1.35148 -6.7106 3.97569e-015 -1.59028e-015 -3.18055e-015 3.97569e-015 -7.95139e-016 -6.36111e-015 0.605709 2.6461 -3.17263 
9.16709 95.1167 -7.84962 -0.451959 -4.0119 -4.39746 -0.133753 1.04289 -0.878117 5.33665 -4.59362 10.3575 -1.62838 17.3246 0.282387 -2.17577 -8.88235 3.30073 0.83777 -9.64565 0.40027 -7.89366 -5.2943 0.317632 -1.54599 16.6 6.76474 1.67796 -8.21651 -7.68146 -0.115452 -11.8021 0.341949 -0.309836 2.08816 -1.75595 -0.310025 2.08817 -1.75596 -4.80301 -0.426892 -1.70729 -24.5552 4.99483 -9.22025 -51.9403 40.5592 8.68747 12.6683 0.421671 -25.8077 -2.5732 -0.470394 -2.39917 -3.18055e-015 3.18055e-015 -1.59028e-015 -3.18055e-015 3.18056e-015 -2.38542e-015 33.7424 6.60502 12.2615 46.737 -0.520034 -18.9831 -1.82504 -9.05295 65.2909 -6.48277 -1.00706 -5.1216 8.74652e-015 0 6.36111e-015 6.36111e-015 -1.59028e-015 9.54166e-015 0.587521 2.63896 -3.20704 
9.00995 95.0765 -7.66471 -0.351173 -4.02012 -4.26594 -0.151801 0.946867 -0.954924 5.28369 -4.42674 9.76523 -1.6848 17.3543 -0.103016 -2.18667 -9.04976 4.07937 0.8681 -9.62826 0.527885 -7.87914 -5.28244 -0.306457 -1.67425 17.0912 8.00895 1.26793 -8.58618 -8.31872 -0.00485098 -11.8252 0.303238 -0.334164 1.89652 -1.90858 -0.334196 1.89652 -1.90845 -4.6098 -0.573557 -1.94465 -24.5008 5.01834 -9.02417 -53.0799 41.2953 9.94065 12.9873 0.761739 -25.4094 -3.30563 -0.565363 -2.40033 4.41391e-032 3.18055e-015 -7.95139e-016 4.41391e-032 3.18056e-015 -7.95139e-016 32.9956 6.62503 12.0295 41.0907 -11.1043 -18.6494 -6.97739 -0.508448 72.3278 -10.2838 -1.3797 -3.18541 3.18055e-015 -1.59028e-015 9.54166e-015 -1.59028e-015 -4.77083e-015 3.18055e-015 0.419404 2.69005 -3.3342 
8.78567 95.1102 -7.47399 -0.324707 -4.00925 -3.94552 -0.195935 0.861801 -0.955011 5.44174 -4.162 10.3814 -1.50389 17.1399 -0.766956 -2.33833 -8.93485 3.88254 0.856428 -9.68534 0.379753 -7.72226 -4.951 0.543799 -1.28849 17.0343 7.67388 0.820719 -8.68787 -9.19899 0.08638 -11.8256 0.2353 -0.409706 1.72702 -1.90869 -0.409757 1.72702 -1.90866 -4.00375 -0.823636 -2.42386 -24.734 5.04022 -8.66052 -54.0735 41.1985 10.9013 13.4565 1.63835 -24.8457 -3.91339 -0.526723 -2.09255 3.18055e-015 3.18055e-015 -3.18055e-015 0 0 -2.38542e-015 32.1179 6.7966 11.6353 34.7592 -20.8928 -17.4576 -11.3645 6.20328 78.7606 -14.1776 -1.95505 -1.45473 -3.18055e-015 -6.36111e-015 -0 3.53113e-031 -6.36111e-015 3.18055e-015 0.230592 2.89693 -3.56859 
8.44741 95.1335 -7.40268 -0.451711 -3.81768 -3.33686 -0.202079 0.75374 -0.917034 5.8991 -4.32702 10.9362 -1.37291 17.2662 -1.10274 -2.59421 -8.83694 3.0988 0.833165 -9.74723 0.227628 -7.23151 -4.71913 0.906199 -1.21616 16.8919 7.91415 0.197721 -8.67542 -10.4203 0.312237 -11.8365 0.0721654 -0.388639 1.51057 -1.83184 -0.388151 1.51057 -1.83174 -3.81261 -0.981225 -3.02019 -24.674 5.03281 -8.45171 -54.2073 40.6183 10.8214 13.1367 2.35938 -23.8503 -3.94038 -0.44774 -1.64134 -3.18055e-015 6.36111e-015 -7.95139e-016 1.32417e-031 3.18056e-015 -2.38542e-015 32.1765 7.10788 11.5261 28.4496 -28.0465 -15.4172 -13.9983 8.19721 84.7707 -17.1219 -2.23511 -2.79328 -6.36111e-015 1.11319e-014 -0 -9.54166e-015 7.95139e-015 -6.36111e-015 0.252056 2.92614 -4.0928 
